# xmcd
#
# Track frame offsets:
#	150
#	16367
#	43446
#	63858
#	86574
#	116551
#
# Disc length: 1999 seconds
#
# Revision: 1
# Processed by: cddbd v1.5.1PL0 Copyright (c) Steve Scherf et al.
# Submitted via: audiograbber 1.83.01
#
DISCID=4a07cd06
DTITLE=DJ Antoine - All We Need [CD-Single)
DYEAR=2005
DGENRE=House
TTITLE0=All We Need (Radio Mix)
TTITLE1=All We Need (Extended Vocal Mix)
TTITLE2=All We Need (Original Dub Mix)
TTITLE3=All We Need (Yoko's Bass Praise Mix)
TTITLE4=Disco Inferno (DJ Antoine Vs. Mad Mark With Cyndi Lauper Dave Armstrong
TTITLE4=and Christian Alvarez A&A Remix)
TTITLE5=Disco Inferno (DJ Antoine Vs. Mad Mark With Cyndi Lauper DJ Antoine Vs.
TTITLE5=Mad Mark Club Mix)
EXTD=
EXTT0=
EXTT1=
EXTT2=
EXTT3=
EXTT4=
EXTT5=
PLAYORDER=
